<?xml version="1.0" encoding="utf-8"?>
<!-- Generator: Adobe Illustrator 15.0.0, SVG Export Plug-In . SVG Version: 6.00 Build 0)  -->
<!DOCTYPE svg PUBLIC "-//W3C//DTD SVG 1.1//EN" "http://www.w3.org/Graphics/SVG/1.1/DTD/svg11.dtd">
<svg version="1.1" id="Layer_1" xmlns="http://www.w3.org/2000/svg" xmlns:xlink="http://www.w3.org/1999/xlink" x="0px" y="0px" viewBox="222.14 168.445 145 133" enable-background="new 222.14 168.445 145 133"
	 xml:space="preserve">
<style type="text/css">
    .s-name { font-family:'SegoeUI-Bold'; font-size:20px; fill:#333333; }
</style>        
<g>
	<path fill="#3B6B9B" stroke="#1E405B" stroke-miterlimit="10" d="M228.443,236.644l134.406,0.505l0.132,31.556l-0.1,1.632
		l-0.6,2.242l-1.127,2.585l-1.769,2.273l-2.947,2.842l-3.822,2.728l-4.806,2.568l-5.842,2.458l-7.754,2.568l-7.427,1.854
		l-13.134,2.068l-10.296,0.938l-6.442,0.164l-12.997-0.437l-13.518-1.537l-9.174-2.074l-5.327-1.358l-5.132-1.584l-5.295-2.242
		l-4.316-2.127l-5.021-3.169l-3.111-2.784l-1.643-1.963l-1.742-2.843l-0.879-2.016l-0.531-2.784L228.443,236.644z"/>
	<path fill="#447EC0" stroke="#2D567F" stroke-miterlimit="10" d="M363.022,235.274c0,14.886-30.166,26.951-67.375,26.951
		c-37.21,0-67.375-12.064-67.375-26.951c0-14.881,30.166-26.95,67.375-26.95C332.856,208.324,363.022,220.394,363.022,235.274"/>
	<path fill="#FFFFFF" stroke="#2B537B" stroke-width="1.25" stroke-miterlimit="10" d="M250.704,220.161l9.291-3.453l23.939,9.648
		l10.122-3.574l-4.527,8.933l-26.081-0.122l7.264-2.737L250.704,220.161z"/>
	<path fill="#FFFFFF" stroke="#2B537B" stroke-width="1.25" stroke-miterlimit="10" d="M307.752,242.185l-11.554,3.332l4.527-9.764
		l28.703,0.358l-10.839,3.332l20.96,9.054l-8.933,3.574L307.752,242.185z"/>
	<path fill="#FFFFFF" stroke="#2B537B" stroke-width="1.25" stroke-miterlimit="10" d="M297.037,229.442l21.076-9.053l-11.074-3.216
		l28.824-0.237l5.358,9.169l-9.77-2.974l-24.529,10.001L297.037,229.442z"/>
	<path fill="#FFFFFF" stroke="#2B537B" stroke-width="1.25" stroke-miterlimit="10" d="M272.146,248.265l7.975,2.974l-26.319-0.237
		l-5.953-9.764l10.954,3.811l24.182-10.243l9.764,3.932L272.146,248.265z"/>
</g>
<text transform="matrix(1 0 0 1 262.5251 189.5698)" class="s-name">default</text>
</svg>
