<?xml version="1.0" encoding="utf-8"?>
<!-- Generator: Adobe Illustrator 15.0.0, SVG Export Plug-In . SVG Version: 6.00 Build 0)  -->
<!DOCTYPE svg PUBLIC "-//W3C//DTD SVG 1.1//EN" "http://www.w3.org/Graphics/SVG/1.1/DTD/svg11.dtd">
<svg version="1.1" id="Layer_1" xmlns="http://www.w3.org/2000/svg" xmlns:xlink="http://www.w3.org/1999/xlink" x="0px" y="0px" viewBox="217.306 0 83 141.278" enable-background="new 217.306 0 83 141.278"
	 xml:space="preserve">
<style type="text/css">
    .s-name { font-family:'SegoeUI-Bold'; font-size:20px; fill:#333333; }
</style>     
<g>
	<path fill="#C9C7C7" stroke="#777777" stroke-miterlimit="10" d="M297.046,35.165c1.01,1.508,0.687,73.427-0.627,76.259
		c-1.032,2.24-34.427,27.477-36.166,28.139c-22.581-0.128-37.804-7.609-40.33-11.562c-0.972-4.961-0.143-81.477,0.767-83.076
		c0.81-1.397,43.525-15.311,45.021-15.642C267.066,29.009,295.893,33.493,297.046,35.165L297.046,35.165z"/>
	<path fill="#FFFFFF" fill-opacity="0.5412" stroke="#FFFFFF" stroke-opacity="0.5412" d="M295.407,36.654l-1.051,0.404
		l-1.052,0.423l-1.052,0.423l-1.07,0.459l-1.071,0.459l-1.072,0.478l-1.07,0.478l-1.093,0.497l-1.091,0.496l-1.093,0.514
		l-1.111,0.515l-1.091,0.533l-1.111,0.533l-1.113,0.533l-2.243,1.103l-2.265,1.103l-2.265,1.103l-2.283,1.122l-2.305,1.102
		l-2.305,1.103l-2.305,1.085l-1.152,0.533l-1.152,0.533l-1.172,0.515l-1.153,0.515l-0.546-0.11l-0.566-0.128l-1.132-0.239
		l-1.172-0.258l-1.194-0.238l-1.212-0.258l-1.233-0.257l-1.233-0.257l-1.273-0.257l-1.253-0.257l-1.274-0.276l-2.567-0.514
		l-2.567-0.514l-1.293-0.258l-1.272-0.258l-1.254-0.238l-1.255-0.24l-1.233-0.238l-1.212-0.239l-1.213-0.239l-1.174-0.22
		l-1.15-0.221l-0.567-0.092l-0.565-0.11l-0.546-0.092l-0.546-0.11l-0.547-0.092l-0.524-0.092l-0.526-0.092l-0.504-0.11l-0.506-0.073
		l-0.484-0.092l-0.485-0.092l-0.485-0.074l-0.466-0.074l-0.445-0.092l-0.443-0.073l-0.425-0.055l-0.425-0.074l-0.405-0.074
		l1.052,0.294l1.051,0.294l1.072,0.294l1.091,0.276l1.112,0.294l1.112,0.276l1.152,0.294l1.131,0.275l1.153,0.294l1.172,0.276
		l2.346,0.57l2.366,0.551l2.385,0.57l2.385,0.57l2.366,0.551l2.345,0.57l1.172,0.275l1.152,0.294l1.152,0.276l1.132,0.294
		L253.5,53.6l1.112,0.294l1.091,0.275l1.072,0.294l1.051,0.294l1.052,0.294l0.02,1.103l0.041,1.121l0.02,1.122l0.021,1.158
		L259,60.731l0.04,1.176l0.019,1.195l0.021,1.213l0.02,1.231l0.021,1.232l0.02,1.25v1.268l0.021,1.269l0.02,1.286l0.02,1.287v1.304
		l0.021,1.305v1.324l0.02,1.324l0.021,1.341l0.021,2.684l0.02,2.702v2.739l0.021,2.738l0.04,5.496l0.021,5.513l0.02,2.74l0.021,2.72
		l0.02,2.702l0.021,2.684l0.02,1.341v1.323l0.021,1.323l0.02,1.305v1.305l0.02,1.306l0.021,1.268l0.021,1.287v1.25l0.02,1.25
		l0.021,1.232l0.02,1.23l0.021,1.214l0.021,1.194l0.021,1.194l0.04,1.158l0.021,1.158l0.02,1.139l0.04,1.121l0.021,1.104l0.02-1.121
		l0.02-1.122v-1.158l0.021-1.158l0.021-1.177l0.019-1.194l0.021-1.213l0.02-1.232l0.021-1.231l0.02-1.25l0.021-1.268l0.04-1.269
		l0.02-1.286l0.02-1.306l0.021-1.305l0.021-1.324l0.019-1.323l0.04-1.341l0.021-1.342l0.021-1.342l0.06-2.72l0.062-2.739l0.04-2.775
		l0.061-2.775l0.12-5.57l0.102-5.569l0.061-2.774l0.062-2.757l0.04-2.739l0.061-2.738l0.02-1.342l0.042-1.342l0.02-1.341l0.02-1.324
		l0.021-1.305l0.02-1.324l0.021-1.287l0.04-1.286l0.02-1.287l0.021-1.25l0.02-1.25l0.021-1.25l0.021-1.213l0.02-1.212l0.02-1.195
		l0.021-1.176l0.021-1.176v-1.139l0.021-1.14l0.019-1.103l2.225-1.085l2.203-1.084l2.204-1.048l2.203-1.065l2.185-1.048l2.162-1.066
		l2.163-1.048l2.163-1.066l2.122-1.066l2.124-1.066l2.102-1.102l2.083-1.103l1.03-0.551l1.011-0.57l1.031-0.57l1.01-0.569
		l1.011-0.57l1.012-0.588l0.99-0.588l1.017-0.577L295.407,36.654z"/>
	<path fill="none" d="M295.407,36.654c-11.098,4.264-23.368,11.139-35.74,16.56c-11.725-2.537-28.646-5.919-37.177-7.278
		c10.977,3.105,25.411,6.01,36.39,9.116c0.647,23.361,0.323,58.741,0.971,82.103c0.323-23.563,1.192-59.514,1.515-83.058
		C273.211,48.269,284.835,43.049,295.407,36.654L295.407,36.654z"/>
	<path fill="#020202" fill-opacity="0.1608" stroke="#FFFFFF" stroke-opacity="0.1608" d="M226.633,113.591l0.202,0.258l0.202,0.238
		l0.222,0.239l0.243,0.239l0.243,0.221l0.243,0.22l0.281,0.221l0.264,0.221l0.283,0.221l0.304,0.202l0.303,0.203l0.323,0.203
		l0.304,0.202l0.344,0.184l0.322,0.183l0.344,0.203l0.364,0.166l0.365,0.184l0.362,0.165l0.365,0.147l0.383,0.166l0.385,0.147
		l0.384,0.147l0.384,0.146l0.809,0.277l0.809,0.257l0.829,0.221l0.829,0.202l0.849,0.184l0.829,0.165l0.85,0.148l0.828,0.11
		l0.829,0.11l0.828,0.055l0.426,0.037l0.403,0.018l0.385,0.019h1.191l0.386-0.019l0.384-0.018l0.363-0.019l0.385-0.018l0.344-0.037
		l0.363-0.055l0.344-0.037l0.343-0.055l0.344-0.073l0.324-0.073l0.304-0.074l0.304-0.073l0.302-0.092l0.304-0.092l-0.041-0.019
		h-0.021l-0.101-0.036l-0.121-0.019l-0.141-0.037l-0.162-0.037l-0.202-0.055l-0.202-0.055l-0.243-0.054l-0.262-0.074l-0.284-0.056
		l-0.302-0.073l-0.324-0.093l-0.324-0.073l-0.362-0.093l-0.364-0.091l-0.385-0.092l-0.404-0.111l-0.404-0.091l-0.424-0.111
		l-0.445-0.11l-0.445-0.111l-0.444-0.109l-0.465-0.129l-0.484-0.11l-0.972-0.24l-0.99-0.256l-1.011-0.257l-1.012-0.239l-1.01-0.275
		l-1.012-0.24l-0.986-0.25l-0.99-0.239l-0.465-0.129l-0.484-0.109l-0.466-0.13l-0.444-0.109l-0.444-0.111l-0.426-0.11l-0.424-0.11
		l-0.405-0.092l-0.384-0.111l-0.385-0.091l-0.364-0.091l-0.343-0.093l-0.323-0.073l-0.303-0.093l-0.304-0.073l-0.263-0.074
		l-0.243-0.056l-0.241-0.054l-0.203-0.056l-0.183-0.056l-0.142-0.036l-0.14-0.037l-0.102-0.037h-0.041l-0.041-0.012L226.633,113.591
		z"/>
	<path fill="none" d="M226.633,113.591c4.063,5.312,16.841,7.922,22.903,5.79C248.467,119.125,227.989,113.996,226.633,113.591
		L226.633,113.591z"/>
	<path fill="#FFFFFF" fill-opacity="0.3882" stroke="#FFFFFF" stroke-opacity="0.3882" d="M247.536,103.758l-18.923-6.635
		l-0.182,0.073l-0.162,0.074l-0.161,0.073l-0.12,0.093l-0.122,0.11l-0.121,0.11l-0.101,0.129l-0.103,0.111l-0.081,0.128l-0.08,0.129
		l-0.061,0.128l-0.062,0.147l-0.06,0.147l-0.04,0.129l-0.062,0.275l-0.039,0.277l-0.042,0.257v0.68l0.021,0.074v0.11l2.952,0.937
		l0.02,0.019l0.021,0.019l0.021,0.018l0.021,0.037l0.039,0.036l0.02,0.056l0.062,0.056l0.04,0.054l0.061,0.074l0.061,0.073
		l0.062,0.074l0.08,0.091l0.081,0.074l0.082,0.109l0.099,0.074l0.203,0.22l0.202,0.203l0.264,0.22l0.262,0.221l0.284,0.24
		l0.303,0.22l0.344,0.238l0.344,0.221l0.383,0.221l0.385,0.201l0.425,0.203l0.444,0.184l0.223,0.074l0.222,0.091l0.244,0.073
		l0.24,0.074l0.264,0.056l0.243,0.055l0.263,0.055l0.264,0.056l0.262,0.036l0.264,0.019l0.282,0.037l0.283,0.018h0.889l0.304-0.018
		l0.304-0.037l0.303-0.036l0.325-0.038l0.322-0.056l0.324-0.073l0.322-0.074l0.344-0.091l0.344-0.11h0.021l0.039,0.018h0.062
		l0.121,0.019l0.122,0.019l0.142,0.019l0.161,0.018l0.183,0.02l0.202,0.018l0.222,0.018l0.243,0.019l0.243,0.019h0.242l0.263,0.019
		h0.525l0.282-0.019l0.264-0.019l0.283-0.019l0.263-0.036l0.262-0.037l0.243-0.055l0.242-0.055l0.243-0.055l0.202-0.092l0.222-0.092
		l0.184-0.11l0.16-0.111l0.162-0.146l0.062-0.074l0.06-0.073l0.061-0.074l0.042-0.073l0.04-0.092l0.033-0.086L247.536,103.758z"/>
	<path fill="none" d="M247.536,103.758l-18.923-6.635c-1.96,0.625-1.576,3.253-1.576,3.253l2.952,0.937
		c0,0,4.123,5.863,11.442,3.565C241.432,104.879,246.868,105.761,247.536,103.758L247.536,103.758z"/>
	<path fill="#616262" d="M247.374,101.516c-6.287-1.489-12.573-2.959-18.862-4.448c-0.242,0.809-0.263,1.966,0.122,2.573
		c0.951,0.423,2.87,0.754,3.821,1.176c2.749,2.408,5.154,2.61,9.541,2.279c1.699,0.312,3.397,0.569,5.074,0.882
		c0.528-0.938,0.67-1.324,0.306-2.464L247.374,101.516z"/>
	<path fill="none" d="M247.374,101.516c-6.287-1.489-12.573-2.959-18.862-4.448c-0.242,0.809-0.263,1.966,0.122,2.573
		c0.951,0.423,2.87,0.754,3.821,1.176c2.749,2.408,5.154,2.61,9.541,2.279c1.699,0.312,3.397,0.569,5.074,0.882
		c0.528-0.938,0.67-1.324,0.306-2.464L247.374,101.516z"/>
	<path fill="#FFFFFF" fill-opacity="0.4" stroke="#FFFFFF" stroke-opacity="0.4" d="M296.095,36.14l-36.651,18.692l0.143,83.61
		l35.883-27.459L296.095,36.14L296.095,36.14z"/>
	<path fill="none" d="M296.095,36.14l-36.651,18.692l0.143,83.61l35.883-27.459L296.095,36.14L296.095,36.14z"/>
	<path fill="#020202" fill-opacity="0.1608" stroke="#FFFFFF" stroke-opacity="0.1608" d="M228.755,118.886l0.203,0.238l0.223,0.221
		l0.202,0.238l0.223,0.203l0.223,0.221l0.222,0.202l0.243,0.203l0.242,0.184l0.243,0.184l0.242,0.184l0.262,0.184l0.243,0.165
		l0.264,0.166l0.262,0.146l0.547,0.313l0.565,0.275l0.566,0.257l0.565,0.24l0.586,0.202l0.587,0.202l0.606,0.166l0.606,0.147
		l0.586,0.146l0.606,0.11l0.607,0.092l0.605,0.074l0.606,0.055l0.607,0.037l0.586,0.036h0.587l0.586-0.018l0.545-0.038l0.566-0.036
		l0.546-0.056l0.526-0.092l0.504-0.092l0.485-0.11l0.485-0.11l0.444-0.147l-0.039-0.019h-0.082l-0.08-0.038l-0.101-0.018
		l-0.122-0.038l-0.162-0.036l-0.161-0.036l-0.183-0.038l-0.201-0.055l-0.202-0.055l-0.222-0.056l-0.243-0.055l-0.264-0.074
		l-0.263-0.055l-0.282-0.074l-0.305-0.074l-0.303-0.073l-0.302-0.091l-0.325-0.075l-0.323-0.091l-0.344-0.074l-0.363-0.092
		l-0.708-0.184l-0.728-0.184l-0.769-0.184l-0.769-0.184l-0.768-0.203l-1.536-0.386l-0.748-0.183l-0.749-0.202l-0.727-0.185
		l-0.344-0.073l-0.344-0.092l-0.344-0.091l-0.323-0.074l-0.324-0.091l-0.303-0.074l-0.304-0.073l-0.282-0.074l-0.283-0.074
		l-0.264-0.073l-0.241-0.055l-0.224-0.055l-0.242-0.055l-0.202-0.056l-0.182-0.055l-0.161-0.036l-0.162-0.056l-0.142-0.019
		l-0.121-0.037l-0.102-0.037l-0.08-0.019l-0.068-0.021L228.755,118.886z"/>
	<path fill="none" d="M228.755,118.886c4.227,5.073,12.677,5.936,17.406,4.393C245.374,123.094,229.788,119.196,228.755,118.886
		L228.755,118.886z"/>
	<path fill="#020202" fill-opacity="0.1608" stroke="#FFFFFF" stroke-opacity="0.1608" d="M231.89,124.086l0.242,0.276l0.242,0.257
		l0.262,0.258l0.284,0.221l0.283,0.238l0.282,0.203l0.304,0.203l0.322,0.201l0.304,0.165l0.345,0.166l0.322,0.166l0.344,0.128
		l0.364,0.129l0.344,0.129l0.364,0.092l0.364,0.092l0.364,0.091l0.383,0.056l0.364,0.073l0.385,0.037l0.363,0.037l0.384,0.02h0.77
		l0.362-0.02l0.384-0.037l0.365-0.037l0.384-0.054l0.363-0.074l0.363-0.073l0.365-0.093l0.343-0.109h-0.021l-0.04-0.019h-0.062
		l-0.08-0.018l-0.06-0.019l-0.103-0.037l-0.101-0.02l-0.12-0.036l-0.123-0.019l-0.12-0.037l-0.142-0.037l-0.162-0.036l-0.162-0.037
		l-0.16-0.056l-0.184-0.037l-0.181-0.037l-0.384-0.11l-0.405-0.091l-0.444-0.111l-0.445-0.11l-0.465-0.11l-0.464-0.128l-0.972-0.239
		l-0.97-0.24l-0.465-0.127l-0.465-0.111l-0.466-0.11l-0.425-0.111l-0.423-0.109l-0.385-0.111l-0.182-0.037l-0.183-0.055
		l-0.182-0.036l-0.162-0.037l-0.162-0.038l-0.141-0.036l-0.142-0.038l-0.122-0.037l-0.121-0.037l-0.101-0.038l-0.102-0.018
		l-0.101-0.02l-0.062-0.017l-0.06-0.019l-0.062-0.019H231.89L231.89,124.086z"/>
	<path fill="none" d="M231.89,124.086c2.445,2.996,7.176,3.915,10.916,2.739C242.301,126.713,232.557,124.27,231.89,124.086
		L231.89,124.086z"/>
	<path fill="#FDFEFF" fill-opacity="0.4392" stroke="#FFFFFF" stroke-opacity="0.4392" d="M225.34,51.67l-1.86,0.24l-0.344,39.938
		l28.807,7.333l0.709-2.132l-27.676-6.708l0.362-38.673L225.34,51.67z"/>
	<path fill="none" d="M225.34,51.67l-1.86,0.24l-0.344,39.938l28.807,7.333l0.709-2.132l-27.676-6.708l0.362-38.673L225.34,51.67z"
		/>
	<path fill="#020202" fill-opacity="0.2314" stroke="#FFFFFF" stroke-opacity="0.2314" d="M252.51,66.484l-0.04,1.122l-27.089-7.095
		L252.51,66.484L252.51,66.484z"/>
	<path fill="#020202" fill-opacity="0.2314" stroke="#FFFFFF" stroke-opacity="0.2314" d="M252.913,74.608l-0.061,1.121
		l-27.068-7.095L252.913,74.608L252.913,74.608z"/>
	<path fill="#020202" fill-opacity="0.2314" stroke="#FFFFFF" stroke-opacity="0.2314" d="M252.51,82.125l-0.04,1.122l-27.089-7.095
		L252.51,82.125L252.51,82.125z"/>
	<path fill="#020202" fill-opacity="0.2314" stroke="#FFFFFF" stroke-opacity="0.2314" d="M252.51,89.514l-0.04,1.121l-27.089-7.113
		L252.51,89.514L252.51,89.514z"/>
	<path fill="#9E9E9E" d="M225.44,52.588l26.929,6.121l-0.224,40.382h0.445l0.223-40.528v-0.166l-0.161-0.037l-27.11-6.157
		l-0.04,0.202L225.44,52.588L225.44,52.588z M252.531,58.746l-0.162-0.037v-0.147h0.222L252.531,58.746L252.531,58.746z"/>
</g>
<text transform="matrix(1 0 0 1 225.4631 17.5698)" class="s-name">Master</text>
</svg>
