<?xml version="1.0" encoding="utf-8"?>
<!-- Generator: Adobe Illustrator 15.0.0, SVG Export Plug-In  -->
<!DOCTYPE svg PUBLIC "-//W3C//DTD SVG 1.1//EN" "http://www.w3.org/Graphics/SVG/1.1/DTD/svg11.dtd" [
	<!ENTITY ns_flows "http://ns.adobe.com/Flows/1.0/">
]>
<svg version="1.1"
	 xmlns="http://www.w3.org/2000/svg" xmlns:xlink="http://www.w3.org/1999/xlink" xmlns:a="http://ns.adobe.com/AdobeSVGViewerExtensions/3.0/"
	 x="0px" y="0px" viewBox="0 0 773 62" enable-background="new 0 0 773 62" xml:space="preserve">
<style type="text/css">
    .s-text { font-family:'SegoeUI'; font-size:7px; fill:#ffffff; }
    
    .s-up { fill:#1d9b00; }
    .s-unup { fill:#6b0000; }
    .s-down { fill:#e40030; }
    .s-undown { fill:#000000; }    
</style>     
<defs>
</defs>
<rect fill="#040000" width="772.903" height="61.992"/>
<path fill-rule="evenodd" clip-rule="evenodd" fill="#3F3F3F" d="M3.976,4.996h763v52h-763V4.996z"/>
<path fill-rule="evenodd" clip-rule="evenodd" fill="#ADAEAE" d="M9.828,9.996h41v42h-41V9.996z"/>
<g>
	<g>
		<path fill-rule="evenodd" clip-rule="evenodd" fill="#ADAEAE" d="M50.828,35.996h151v-10h-151V35.996z M208.828,35.996h151v-10
			h-151V35.996z M366.828,35.996h151v-10h-151V35.996z M524.828,35.996h151v-10h-151V35.996z M687.828,25.996v10h73v-10H687.828z"/>
	</g>
</g>
<g>
	<g>
		<path fill-rule="evenodd" clip-rule="evenodd" fill="#040000" d="M36,22.996v-3h-2v-2h-9v2h-2v3h-4v14h21v-14H36z M19,43.996h21
			v-5H19V43.996z"/>
	</g>
</g>
<rect x="49" y="9.996" fill-rule="evenodd" clip-rule="evenodd" width="25" height="16" class="s-undown"/>
<text transform="matrix(1 0 0 1 59.6138 23.417)" class="s-text">1</text>
<rect x="74.984" y="9.996" fill-rule="evenodd" clip-rule="evenodd" width="25" height="16" class="s-undown"/>
<text transform="matrix(1 0 0 1 85.5972 23.417)" class="s-text">3</text>
<rect x="100.967" y="9.996" fill-rule="evenodd" clip-rule="evenodd" width="25" height="16" class="s-up"/>
<text transform="matrix(1 0 0 1 111.5806 23.417)" class="s-text">5</text>
<rect x="126.95" y="9.996" fill-rule="evenodd" clip-rule="evenodd" width="25" height="16" class="s-up"/>
<text transform="matrix(1 0 0 1 137.5635 23.417)" class="s-text">7</text>
<rect x="152.934" y="9.996" fill-rule="evenodd" clip-rule="evenodd" width="25" height="16" class="s-undown"/>
<text transform="matrix(1 0 0 1 163.5469 23.417)" class="s-text">9</text>
<rect x="178.917" y="9.996" fill-rule="evenodd" clip-rule="evenodd" width="25" height="16" class="s-down"/>
<text transform="matrix(1 0 0 1 187.6436 23.417)" class="s-text">11</text>
<rect x="49" y="35.996" fill-rule="evenodd" clip-rule="evenodd" width="25" height="16" class="s-undown"/>
<text transform="matrix(1 0 0 1 59.6138 49.417)" class="s-text">2</text>
<rect x="74.984" y="35.996" fill-rule="evenodd" clip-rule="evenodd" width="25" height="16" class="s-undown"/>
<text transform="matrix(1 0 0 1 85.5972 49.417)" class="s-text">4</text>
<rect x="100.967" y="35.996" fill-rule="evenodd" clip-rule="evenodd" width="25" height="16" class="s-down"/>
<text transform="matrix(1 0 0 1 111.5806 49.417)" class="s-text">6</text>
<rect x="126.95" y="35.996" fill-rule="evenodd" clip-rule="evenodd" width="25" height="16" class="s-undown"/>
<text transform="matrix(1 0 0 1 137.5635 49.417)" class="s-text">8</text>
<rect x="152.934" y="35.996" fill-rule="evenodd" clip-rule="evenodd" width="25" height="16" class="s-undown"/>
<text transform="matrix(1 0 0 1 161.6602 49.417)" class="s-text">10</text>
<rect x="178.917" y="35.996" fill-rule="evenodd" clip-rule="evenodd" width="25" height="16" class="s-unup"/>
<text transform="matrix(1 0 0 1 187.6436 49.417)" class="s-text">12</text>
<rect x="206.901" y="9.996" fill-rule="evenodd" clip-rule="evenodd" width="25" height="16" class="s-unup"/>
<text transform="matrix(1 0 0 1 215.6274 23.417)" class="s-text">13</text>
<rect x="232.884" y="9.996" fill-rule="evenodd" clip-rule="evenodd" width="25" height="16" class="s-undown"/>
<text transform="matrix(1 0 0 1 241.6108 23.417)" class="s-text">15</text>
<rect x="258.868" y="9.996" fill-rule="evenodd" clip-rule="evenodd" width="25" height="16" class="s-undown"/>
<text transform="matrix(1 0 0 1 267.5942 23.417)" class="s-text">17</text>
<rect x="284.851" y="9.996" fill-rule="evenodd" clip-rule="evenodd" width="25" height="16" class="s-undown"/>
<text transform="matrix(1 0 0 1 293.5771 23.417)" class="s-text">19</text>
<rect x="310.834" y="9.996" fill-rule="evenodd" clip-rule="evenodd" width="25" height="16" class="s-undown"/>
<text transform="matrix(1 0 0 1 319.5605 23.417)" class="s-text">21</text>
<rect x="336.817" y="9.996" fill-rule="evenodd" clip-rule="evenodd" width="25" height="16" class="s-undown"/>
<text transform="matrix(1 0 0 1 345.5439 23.417)" class="s-text">23</text>
<rect x="206.901" y="35.996" fill-rule="evenodd" clip-rule="evenodd" width="25" height="16" class="s-undown"/>
<text transform="matrix(1 0 0 1 215.6274 49.417)" class="s-text">14</text>
<rect x="232.884" y="35.996" fill-rule="evenodd" clip-rule="evenodd" width="25" height="16" class="s-undown"/>
<text transform="matrix(1 0 0 1 241.6108 49.417)" class="s-text">16</text>
<rect x="258.868" y="35.996" fill-rule="evenodd" clip-rule="evenodd" width="25" height="16" class="s-undown"/>
<text transform="matrix(1 0 0 1 267.5942 49.417)" class="s-text">18</text>
<rect x="284.851" y="35.996" fill-rule="evenodd" clip-rule="evenodd" width="25" height="16" class="s-undown"/>
<text transform="matrix(1 0 0 1 293.5771 49.417)" class="s-text">20</text>
<rect x="310.834" y="35.996" fill-rule="evenodd" clip-rule="evenodd" width="25" height="16" class="s-undown"/>
<text transform="matrix(1 0 0 1 319.5605 49.417)" class="s-text">22</text>
<rect x="336.817" y="35.996" fill-rule="evenodd" clip-rule="evenodd" width="25" height="16" class="s-undown"/>
<text transform="matrix(1 0 0 1 345.5439 49.417)" class="s-text">24</text>
<rect x="364.901" y="9.996" fill-rule="evenodd" clip-rule="evenodd" width="25" height="16" class="s-undown"/>
<text transform="matrix(1 0 0 1 373.6274 23.417)" class="s-text">25</text>
<rect x="390.885" y="9.996" fill-rule="evenodd" clip-rule="evenodd" width="25" height="16" class="s-undown"/>
<text transform="matrix(1 0 0 1 399.6113 23.417)" class="s-text">27</text>
<rect x="416.867" y="9.996" fill-rule="evenodd" clip-rule="evenodd" width="25" height="16" class="s-undown"/>
<text transform="matrix(1 0 0 1 425.5938 23.417)" class="s-text">29</text>
<rect x="442.851" y="9.996" fill-rule="evenodd" clip-rule="evenodd" width="25" height="16" class="s-undown"/>
<text transform="matrix(1 0 0 1 451.5771 23.417)" class="s-text">31</text>
<rect x="468.834" y="9.996" fill-rule="evenodd" clip-rule="evenodd" width="25" height="16" class="s-undown"/>
<text transform="matrix(1 0 0 1 477.5605 23.417)" class="s-text">33</text>
<rect x="494.817" y="9.996" fill-rule="evenodd" clip-rule="evenodd" width="25" height="16" class="s-undown"/>
<text transform="matrix(1 0 0 1 503.5439 23.417)" class="s-text">35</text>
<rect x="364.901" y="35.996" fill-rule="evenodd" clip-rule="evenodd" width="25" height="16" class="s-undown"/>
<text transform="matrix(1 0 0 1 373.6274 49.417)" class="s-text">26</text>
<rect x="390.885" y="35.996" fill-rule="evenodd" clip-rule="evenodd" width="25" height="16" class="s-undown"/>
<text transform="matrix(1 0 0 1 399.6113 49.417)" class="s-text">28</text>
<rect x="416.867" y="35.996" fill-rule="evenodd" clip-rule="evenodd" width="25" height="16" class="s-undown"/>
<text transform="matrix(1 0 0 1 425.5938 49.417)" class="s-text">30</text>
<rect x="442.851" y="35.996" fill-rule="evenodd" clip-rule="evenodd" width="25" height="16" class="s-undown"/>
<text transform="matrix(1 0 0 1 451.5771 49.417)" class="s-text">32</text>
<rect x="468.834" y="35.996" fill-rule="evenodd" clip-rule="evenodd" width="25" height="16" class="s-undown"/>
<text transform="matrix(1 0 0 1 477.5605 49.417)" class="s-text">34</text>
<rect x="494.817" y="35.996" fill-rule="evenodd" clip-rule="evenodd" width="25" height="16" class="s-undown"/>
<text transform="matrix(1 0 0 1 503.5439 49.417)" class="s-text">36</text>
<rect x="523.229" y="9.996" fill-rule="evenodd" clip-rule="evenodd" width="25" height="16" class="s-undown"/>
<text transform="matrix(1 0 0 1 531.9551 23.417)" class="s-text">37</text>
<rect x="549.213" y="9.996" fill-rule="evenodd" clip-rule="evenodd" width="25" height="16" class="s-undown"/>
<text transform="matrix(1 0 0 1 557.9395 23.417)" class="s-text">39</text>
<rect x="575.195" y="9.996" fill-rule="evenodd" clip-rule="evenodd" width="25" height="16" class="s-undown"/>
<text transform="matrix(1 0 0 1 583.9219 23.417)" class="s-text">41</text>
<rect x="601.179" y="9.996" fill-rule="evenodd" clip-rule="evenodd" width="25" height="16" class="s-undown"/>
<text transform="matrix(1 0 0 1 609.9053 23.417)" class="s-text">43</text>
<rect x="627.162" y="9.996" fill-rule="evenodd" clip-rule="evenodd" width="25" height="16" class="s-undown"/>
<text transform="matrix(1 0 0 1 635.8887 23.417)" class="s-text">45</text>
<rect x="653.146" y="9.996" fill-rule="evenodd" clip-rule="evenodd" width="25" height="16" class="s-undown"/>
<text transform="matrix(1 0 0 1 661.8721 23.417)" class="s-text">47</text>
<rect x="523.229" y="35.996" fill-rule="evenodd" clip-rule="evenodd" width="25" height="16" class="s-undown"/>
<text transform="matrix(1 0 0 1 531.9551 49.417)" class="s-text">38</text>
<rect x="549.213" y="35.996" fill-rule="evenodd" clip-rule="evenodd" width="25" height="16" class="s-undown"/>
<text transform="matrix(1 0 0 1 557.9395 49.417)" class="s-text">40</text>
<rect x="575.195" y="35.996" fill-rule="evenodd" clip-rule="evenodd" width="25" height="16" class="s-undown"/>
<text transform="matrix(1 0 0 1 583.9219 49.417)" class="s-text">42</text>
<rect x="601.179" y="35.996" fill-rule="evenodd" clip-rule="evenodd" width="25" height="16" class="s-undown"/>
<text transform="matrix(1 0 0 1 609.9053 49.417)" class="s-text">44</text>
<rect x="627.162" y="35.996" fill-rule="evenodd" clip-rule="evenodd" width="25" height="16" class="s-undown"/>
<text transform="matrix(1 0 0 1 635.8887 49.417)" class="s-text">46</text>
<rect x="653.146" y="35.996" fill-rule="evenodd" clip-rule="evenodd" width="25" height="16" class="s-undown"/>
<text transform="matrix(1 0 0 1 661.8721 49.417)" class="s-text">48</text>
<rect x="685.896" y="9.996" fill-rule="evenodd" clip-rule="evenodd" width="25" height="16" class="s-undown"/>
<text transform="matrix(1 0 0 1 694.623 23.417)" class="s-text">49</text>
<rect x="711.88" y="9.996" fill-rule="evenodd" clip-rule="evenodd" width="25" height="16" class="s-undown"/>
<text transform="matrix(1 0 0 1 720.6055 23.417)" class="s-text">51</text>
<rect x="737.862" y="9.996" fill-rule="evenodd" clip-rule="evenodd" width="25" height="16" class="s-undown"/>
<text transform="matrix(1 0 0 1 746.5898 23.417)" class="s-text">53</text>
<rect x="685.896" y="35.996" fill-rule="evenodd" clip-rule="evenodd" width="25" height="16" class="s-undown"/>
<text transform="matrix(1 0 0 1 694.623 49.417)" class="s-text">50</text>
<rect x="711.88" y="35.996" fill-rule="evenodd" clip-rule="evenodd" width="25" height="16" class="s-undown"/>
<text transform="matrix(1 0 0 1 720.6055 49.417)" class="s-text">52</text>
<rect x="737.862" y="35.996" fill-rule="evenodd" clip-rule="evenodd" width="25" height="16" class="s-undown"/>
<text transform="matrix(1 0 0 1 746.5898 49.417)" class="s-text">54</text>
</svg>
