<?xml version="1.0" encoding="utf-8"?>
<!-- Generator: Adobe Illustrator 15.0.0, SVG Export Plug-In  -->
<!DOCTYPE svg PUBLIC "-//W3C//DTD SVG 1.1//EN" "http://www.w3.org/Graphics/SVG/1.1/DTD/svg11.dtd" [
	<!ENTITY ns_flows "http://ns.adobe.com/Flows/1.0/">
]>
<svg version="1.1"
	 xmlns="http://www.w3.org/2000/svg" xmlns:xlink="http://www.w3.org/1999/xlink" xmlns:a="http://ns.adobe.com/AdobeSVGViewerExtensions/3.0/"
	 x="0px" y="0px" viewBox="0 -0.224 137 355" enable-background="new 0 -0.224 137 355"
	 xml:space="preserve">
<style type="text/css">
    .s-default { fill:#EDEDED; }
    .s-text { font-family:'SegoeUI-Semibold'; font-size:14px; fill:#555555; }
    .s-name { font-family:'SegoeUI-Bold'; font-size:20px; fill:#333333; }
    .s-bg1 { fill:#404040; }
    .s-bg2 { fill:#D6D6D6; }
    
    .s-up { fill:#1d9b00; }
    .s-down { fill:#e40030; }
</style>     
<defs>
</defs>
<rect y="339.526" fill-rule="evenodd" clip-rule="evenodd" class="s-default" width="14.75" height="14.75"/>
<rect x="23" y="339.526" fill-rule="evenodd" clip-rule="evenodd" class="s-default" width="14.75" height="14.75"/>
<rect y="321.558" fill-rule="evenodd" clip-rule="evenodd" class="s-default" width="14.75" height="14.75"/>
<rect x="23" y="321.558" fill-rule="evenodd" clip-rule="evenodd" class="s-default" width="14.75" height="14.75"/>
<rect y="303.589" fill-rule="evenodd" clip-rule="evenodd" class="s-default" width="14.75" height="14.75"/>
<rect x="23" y="303.589" fill-rule="evenodd" clip-rule="evenodd" class="s-default s-up" width="14.75" height="14.75"/>
<rect y="285.619" fill-rule="evenodd" clip-rule="evenodd" class="s-default s-up" width="14.75" height="14.75"/>
<rect x="23" y="285.619" fill-rule="evenodd" clip-rule="evenodd" class="s-default" width="14.75" height="14.75"/>
<rect y="267.65" fill-rule="evenodd" clip-rule="evenodd" class="s-default" width="14.75" height="14.75"/>
<rect x="23" y="267.65" fill-rule="evenodd" clip-rule="evenodd" class="s-default s-down" width="14.75" height="14.75"/>
<rect y="235.026" fill-rule="evenodd" clip-rule="evenodd" class="s-default s-down" width="14.75" height="14.75"/>
<rect x="23" y="235.026" fill-rule="evenodd" clip-rule="evenodd" class="s-default" width="14.75" height="14.75"/>
<rect y="217.058" fill-rule="evenodd" clip-rule="evenodd" class="s-default" width="14.75" height="14.75"/>
<rect x="23" y="217.058" fill-rule="evenodd" clip-rule="evenodd" class="s-default" width="14.75" height="14.75"/>
<rect y="199.089" fill-rule="evenodd" clip-rule="evenodd" class="s-default" width="14.75" height="14.75"/>
<rect x="23" y="199.089" fill-rule="evenodd" clip-rule="evenodd" class="s-default" width="14.75" height="14.75"/>
<rect y="181.119" fill-rule="evenodd" clip-rule="evenodd" class="s-default" width="14.75" height="14.75"/>
<rect x="23" y="181.119" fill-rule="evenodd" clip-rule="evenodd" class="s-default" width="14.75" height="14.75"/>
<rect y="163.15" fill-rule="evenodd" clip-rule="evenodd" class="s-default" width="14.75" height="14.75"/>
<rect x="23" y="163.15" fill-rule="evenodd" clip-rule="evenodd" class="s-default" width="14.75" height="14.75"/>
<rect x="99.75" y="235.026" fill-rule="evenodd" clip-rule="evenodd" class="s-default" width="14.75" height="14.75"/>
<rect x="122.75" y="235.026" fill-rule="evenodd" clip-rule="evenodd" class="s-default" width="14.75" height="14.75"/>
<rect x="99.75" y="217.058" fill-rule="evenodd" clip-rule="evenodd" class="s-default" width="14.75" height="14.75"/>
<rect x="122.75" y="217.058" fill-rule="evenodd" clip-rule="evenodd" class="s-default" width="14.75" height="14.75"/>
<rect x="99.75" y="199.089" fill-rule="evenodd" clip-rule="evenodd" class="s-default" width="14.75" height="14.75"/>
<rect x="122.75" y="199.089" fill-rule="evenodd" clip-rule="evenodd" class="s-default" width="14.75" height="14.75"/>
<rect x="99.75" y="181.119" fill-rule="evenodd" clip-rule="evenodd" class="s-default" width="14.75" height="14.75"/>
<rect x="122.75" y="181.119" fill-rule="evenodd" clip-rule="evenodd" class="s-default" width="14.75" height="14.75"/>
<rect x="99.75" y="163.15" fill-rule="evenodd" clip-rule="evenodd" class="s-default" width="14.75" height="14.75"/>
<rect x="122.75" y="163.15" fill-rule="evenodd" clip-rule="evenodd" class="s-default" width="14.75" height="14.75"/>
<rect y="131.164" fill-rule="evenodd" clip-rule="evenodd" class="s-default" width="14.75" height="14.75"/>
<rect x="23" y="131.164" fill-rule="evenodd" clip-rule="evenodd" class="s-default" width="14.75" height="14.75"/>
<rect y="113.195" fill-rule="evenodd" clip-rule="evenodd" class="s-default" width="14.75" height="14.75"/>
<rect x="23" y="113.195" fill-rule="evenodd" clip-rule="evenodd" class="s-default" width="14.75" height="14.75"/>
<rect y="95.226" fill-rule="evenodd" clip-rule="evenodd" class="s-default" width="14.75" height="14.75"/>
<rect x="23" y="95.226" fill-rule="evenodd" clip-rule="evenodd" class="s-default" width="14.75" height="14.75"/>
<rect y="77.256" fill-rule="evenodd" clip-rule="evenodd" class="s-default" width="14.75" height="14.75"/>
<rect x="23" y="77.256" fill-rule="evenodd" clip-rule="evenodd" class="s-default" width="14.75" height="14.75"/>
<rect y="59.288" fill-rule="evenodd" clip-rule="evenodd" class="s-default" width="14.75" height="14.75"/>
<rect x="23" y="59.288" fill-rule="evenodd" clip-rule="evenodd" class="s-default" width="14.75" height="14.75"/>
<rect x="99.75" y="131.164" fill-rule="evenodd" clip-rule="evenodd" class="s-default" width="14.75" height="14.75"/>
<rect x="122.75" y="131.164" fill-rule="evenodd" clip-rule="evenodd" class="s-default" width="14.75" height="14.75"/>
<rect x="99.75" y="113.195" fill-rule="evenodd" clip-rule="evenodd" class="s-default" width="14.75" height="14.75"/>
<rect x="122.75" y="113.195" fill-rule="evenodd" clip-rule="evenodd" class="s-default" width="14.75" height="14.75"/>
<rect x="99.75" y="95.226" fill-rule="evenodd" clip-rule="evenodd" class="s-default" width="14.75" height="14.75"/>
<rect x="122.75" y="95.226" fill-rule="evenodd" clip-rule="evenodd" class="s-default" width="14.75" height="14.75"/>
<rect x="99.75" y="77.256" fill-rule="evenodd" clip-rule="evenodd" class="s-default" width="14.75" height="14.75"/>
<rect x="122.75" y="77.256" fill-rule="evenodd" clip-rule="evenodd" class="s-default" width="14.75" height="14.75"/>
<rect x="99.75" y="59.288" fill-rule="evenodd" clip-rule="evenodd" class="s-default" width="14.75" height="14.75"/>
<rect x="122.75" y="59.288" fill-rule="evenodd" clip-rule="evenodd" class="s-default" width="14.75" height="14.75"/>
<rect x="99.75" y="303.589" fill-rule="evenodd" clip-rule="evenodd" class="s-default" width="14.75" height="14.75"/>
<rect x="122.75" y="303.589" fill-rule="evenodd" clip-rule="evenodd" class="s-default" width="14.75" height="14.75"/>
<rect x="99.75" y="285.619" fill-rule="evenodd" clip-rule="evenodd" class="s-default" width="14.75" height="14.75"/>
<rect x="122.75" y="285.619" fill-rule="evenodd" clip-rule="evenodd" class="s-default" width="14.75" height="14.75"/>
<rect x="99.75" y="267.65" fill-rule="evenodd" clip-rule="evenodd" class="s-default" width="14.75" height="14.75"/>
<rect x="122.75" y="267.65" fill-rule="evenodd" clip-rule="evenodd" class="s-default" width="14.75" height="14.75"/>
<rect x="47.75" y="28.276" width="42" height="326" class="s-bg1"/>
<rect x="55.813" y="219.524" width="25.874" height="102.401" class="s-bg2"/>
<polygon fill-rule="evenodd" clip-rule="evenodd" fill="#050101" points="59.708,319.267 59.708,316.267 58.708,316.267 
	58.708,315.267 57.708,315.267 57.708,309.267 58.708,309.267 58.708,308.267 59.708,308.267 59.708,305.267 66.708,305.267 
	66.708,319.267 "/>
<polygon fill-rule="evenodd" clip-rule="evenodd" fill="#050101" points="70.792,319.267 70.792,305.267 77.792,305.267 
	77.792,308.267 78.792,308.267 78.792,309.267 79.792,309.267 79.792,315.267 78.792,315.267 78.792,316.267 77.792,316.267 
	77.792,319.267 "/>
<polygon fill-rule="evenodd" clip-rule="evenodd" fill="#050101" points="59.708,302.65 59.708,299.65 58.708,299.65 58.708,298.65 
	57.708,298.65 57.708,292.65 58.708,292.65 58.708,291.65 59.708,291.65 59.708,288.65 66.708,288.65 66.708,302.65 "/>
<polygon fill-rule="evenodd" clip-rule="evenodd" fill="#050101" points="70.792,302.65 70.792,288.65 77.792,288.65 77.792,291.65 
	78.792,291.65 78.792,292.65 79.792,292.65 79.792,298.65 78.792,298.65 78.792,299.65 77.792,299.65 77.792,302.65 "/>
<polygon fill-rule="evenodd" clip-rule="evenodd" fill="#050101" points="59.708,286.033 59.708,283.033 58.708,283.033 
	58.708,282.033 57.708,282.033 57.708,276.033 58.708,276.033 58.708,275.033 59.708,275.033 59.708,272.033 66.708,272.033 
	66.708,286.033 "/>
<polygon fill-rule="evenodd" clip-rule="evenodd" fill="#050101" points="70.792,286.033 70.792,272.033 77.792,272.033 
	77.792,275.033 78.792,275.033 78.792,276.033 79.792,276.033 79.792,282.033 78.792,282.033 78.792,283.033 77.792,283.033 
	77.792,286.033 "/>
<polygon fill-rule="evenodd" clip-rule="evenodd" fill="#050101" points="59.708,269.417 59.708,266.417 58.708,266.417 
	58.708,265.417 57.708,265.417 57.708,259.417 58.708,259.417 58.708,258.417 59.708,258.417 59.708,255.417 66.708,255.417 
	66.708,269.417 "/>
<polygon fill-rule="evenodd" clip-rule="evenodd" fill="#050101" points="70.792,269.417 70.792,255.417 77.792,255.417 
	77.792,258.417 78.792,258.417 78.792,259.417 79.792,259.417 79.792,265.417 78.792,265.417 78.792,266.417 77.792,266.417 
	77.792,269.417 "/>
<polygon fill-rule="evenodd" clip-rule="evenodd" fill="#050101" points="59.708,252.8 59.708,249.8 58.708,249.8 58.708,248.8 
	57.708,248.8 57.708,242.8 58.708,242.8 58.708,241.8 59.708,241.8 59.708,238.8 66.708,238.8 66.708,252.8 "/>
<polygon fill-rule="evenodd" clip-rule="evenodd" fill="#050101" points="70.792,252.8 70.792,238.8 77.792,238.8 77.792,241.8 
	78.792,241.8 78.792,242.8 79.792,242.8 79.792,248.8 78.792,248.8 78.792,249.8 77.792,249.8 77.792,252.8 "/>
<polygon fill-rule="evenodd" clip-rule="evenodd" fill="#050101" points="59.708,236.184 59.708,233.184 58.708,233.184 
	58.708,232.184 57.708,232.184 57.708,226.184 58.708,226.184 58.708,225.184 59.708,225.184 59.708,222.184 66.708,222.184 
	66.708,236.184 "/>
<polygon fill-rule="evenodd" clip-rule="evenodd" fill="#050101" points="70.792,236.184 70.792,222.184 77.792,222.184 
	77.792,225.184 78.792,225.184 78.792,226.184 79.792,226.184 79.792,232.184 78.792,232.184 78.792,233.184 77.792,233.184 
	77.792,236.184 "/>
<rect x="55.813" y="115.708" fill="#D6D6D6" width="25.874" height="102.401"/>
<polygon fill-rule="evenodd" clip-rule="evenodd" fill="#050101" points="59.708,215.45 59.708,212.45 58.708,212.45 58.708,211.45 
	57.708,211.45 57.708,205.45 58.708,205.45 58.708,204.45 59.708,204.45 59.708,201.45 66.708,201.45 66.708,215.45 "/>
<polygon fill-rule="evenodd" clip-rule="evenodd" fill="#050101" points="70.792,215.45 70.792,201.45 77.792,201.45 77.792,204.45 
	78.792,204.45 78.792,205.45 79.792,205.45 79.792,211.45 78.792,211.45 78.792,212.45 77.792,212.45 77.792,215.45 "/>
<polygon fill-rule="evenodd" clip-rule="evenodd" fill="#050101" points="59.708,198.834 59.708,195.834 58.708,195.834 
	58.708,194.834 57.708,194.834 57.708,188.834 58.708,188.834 58.708,187.834 59.708,187.834 59.708,184.834 66.708,184.834 
	66.708,198.834 "/>
<polygon fill-rule="evenodd" clip-rule="evenodd" fill="#050101" points="70.792,198.834 70.792,184.834 77.792,184.834 
	77.792,187.834 78.792,187.834 78.792,188.834 79.792,188.834 79.792,194.834 78.792,194.834 78.792,195.834 77.792,195.834 
	77.792,198.834 "/>
<polygon fill-rule="evenodd" clip-rule="evenodd" fill="#050101" points="59.708,182.217 59.708,179.217 58.708,179.217 
	58.708,178.217 57.708,178.217 57.708,172.217 58.708,172.217 58.708,171.217 59.708,171.217 59.708,168.217 66.708,168.217 
	66.708,182.217 "/>
<polygon fill-rule="evenodd" clip-rule="evenodd" fill="#050101" points="70.792,182.217 70.792,168.217 77.792,168.217 
	77.792,171.217 78.792,171.217 78.792,172.217 79.792,172.217 79.792,178.217 78.792,178.217 78.792,179.217 77.792,179.217 
	77.792,182.217 "/>
<polygon fill-rule="evenodd" clip-rule="evenodd" fill="#050101" points="59.708,165.601 59.708,162.601 58.708,162.601 
	58.708,161.601 57.708,161.601 57.708,155.601 58.708,155.601 58.708,154.601 59.708,154.601 59.708,151.601 66.708,151.601 
	66.708,165.601 "/>
<polygon fill-rule="evenodd" clip-rule="evenodd" fill="#050101" points="70.792,165.601 70.792,151.601 77.792,151.601 
	77.792,154.601 78.792,154.601 78.792,155.601 79.792,155.601 79.792,161.601 78.792,161.601 78.792,162.601 77.792,162.601 
	77.792,165.601 "/>
<polygon fill-rule="evenodd" clip-rule="evenodd" fill="#050101" points="59.708,148.983 59.708,145.983 58.708,145.983 
	58.708,144.983 57.708,144.983 57.708,138.983 58.708,138.983 58.708,137.983 59.708,137.983 59.708,134.983 66.708,134.983 
	66.708,148.983 "/>
<polygon fill-rule="evenodd" clip-rule="evenodd" fill="#050101" points="70.792,148.983 70.792,134.983 77.792,134.983 
	77.792,137.983 78.792,137.983 78.792,138.983 79.792,138.983 79.792,144.983 78.792,144.983 78.792,145.983 77.792,145.983 
	77.792,148.983 "/>
<polygon fill-rule="evenodd" clip-rule="evenodd" fill="#050101" points="59.708,132.367 59.708,129.367 58.708,129.367 
	58.708,128.367 57.708,128.367 57.708,122.367 58.708,122.367 58.708,121.367 59.708,121.367 59.708,118.367 66.708,118.367 
	66.708,132.367 "/>
<polygon fill-rule="evenodd" clip-rule="evenodd" fill="#050101" points="70.792,132.367 70.792,118.367 77.792,118.367 
	77.792,121.367 78.792,121.367 78.792,122.367 79.792,122.367 79.792,128.367 78.792,128.367 78.792,129.367 77.792,129.367 
	77.792,132.367 "/>
<rect x="65.428" y="329.72" fill-rule="evenodd" clip-rule="evenodd" fill="#D6D6D6" width="6.644" height="16.945"/>
<polygon fill-rule="evenodd" clip-rule="evenodd" fill="#040000" points="72.072,335.345 70.519,335.345 70.519,341.04 
	72.072,341.04 72.072,346.665 80.357,346.665 80.357,329.72 72.072,329.72 "/>
<polygon fill-rule="evenodd" clip-rule="evenodd" fill="#040000" points="65.428,329.72 57.144,329.72 57.144,346.665 
	65.428,346.665 65.428,341.04 66.981,341.04 66.981,335.345 65.428,335.345 "/>
<text transform="matrix(1 0 0 1 3.5269 45.9014)" class="s-text">1</text>
<text transform="matrix(1 0 0 1 35.6489 17.002)" class="s-name">dpid#1</text> 
<text transform="matrix(1 0 0 1 25.957 45.9014)" class="s-text">2</text>
<text transform="matrix(1 0 0 1 100.2651 45.9014)" class="s-text">31</text>
<text transform="matrix(1 0 0 1 122.3521 45.9014)" class="s-text">32</text>
</svg>
